<?xml version="1.0" encoding="UTF-8"?>
<!-- Created with EazyDraw for Mac ( http://www.eazydraw.com/ ) -->

<svg
    version="1.1"
    xmlns:dc="http://purl.org/dc/elements/1.1/"
    xmlns:cc="http://creativecommons.org/ns#"
    xmlns:rdf="http://www.w3.org/1999/02/22-rdf-syntax-ns#"
    xmlns:svg="http://www.w3.org/2000/svg"
    xmlns:xlink="http://www.w3.org/1999/xlink"
    xmlns="http://www.w3.org/2000/svg"
    width="417.728360399"
    height="443.576640683"
    viewBox="0, 0, 417.728360399, 443.576640683"
    preserveAspectRatio="none"
    id="svg2">
   <defs
       id="defs_6A97069C"/>
   <metadata
       id="metadata7">
      <rdf:RDF>
         <cc:Work
             rdf:about="">
            <dc:format>image/svg+xml</dc:format>
            <dc:type rdf:resource="http://purl.org/dc/dcmitype/StillImage"/>
            <dc:title></dc:title>
         </cc:Work>
      </rdf:RDF>
   </metadata>
   <g
       id="layer_Paper"
       style="fill:#000000;fill-opacity:1;stroke:#000000;stroke-opacity:1;fill-rule:nonzero;stroke-linecap:square;stroke-linejoin:miter;stroke-width:1;stroke-miterlimit:10">
      <path
          style="fill:#FFFFFF;stroke:none"
          id="4BAC739C"
          d="M272.858666553,0.576640682967 C221.858666553,5.576640682967 174.658666553,22.676640683 131.258666553,51.676640683 C71.0586665531,91.976640683 26.8586665531,155.376640683 8.458666553073,228.276640683 C-2.441333446927,271.276640683 -2.841333446927,320.676640683 7.458666553073,366.276640683
C12.5586665531,389.076640683 25.3586665531,423.776640683 34.2586665531,438.976640683 L36.9586665531,443.576640683 L64.3586665531,443.576640683 C79.4586665531,443.576640683 91.8586665531,443.376640683 91.8586665531,442.976640683
C91.8586665531,442.676640683 90.1586665531,439.876640683 87.9586665531,436.776640683 C74.6586665531,417.176640683 61.2586665531,386.276640683 54.8586665531,360.576640683 C48.8586665531,336.576640683 48.4586665531,332.576640683 48.3586665531,299.576640683
C48.3586665531,265.676640683 49.0586665531,259.676640683 56.2586665531,233.476640683 C81.3586665531,142.276640683 153.358666553,73.376640683 244.858666553,53.176640683 C267.758666553,48.176640683 276.958666553,47.176640683 299.858666553,47.376640683
C339.058666553,47.576640683 369.958666553,54.176640683 404.358666553,69.776640683 C410.358666553,72.476640683 415.958666553,74.976640683 416.658666553,75.276640683 C417.658666553,75.676640683 417.858666553,70.476640683 417.658666553,49.576640683
L417.358666553,23.376640683 L412.358666553,21.476640683 C389.358666553,12.476640683 369.558666553,7.076640682967 345.758666553,2.976640682967 C332.758666553,0.776640682967 326.558666553,0.376640682967 305.858666553,0.076640682967
C292.358666553,-0.123359317033 277.558666553,0.076640682967 272.858666553,0.576640682967 z"/>
      <path
          style="fill:#FFFFFF;stroke:none"
          id="6DAC739C"
          d="M286.858666553,127.576640683 C272.658666553,130.576640683 257.058666553,143.476640683 249.758666553,158.076640683 C244.458666553,168.876640683 243.458666553,186.976640683 247.458666553,199.476640683 C250.458666553,208.676640683 258.358666553,219.276640683 267.158666553,225.876640683
C273.958666553,231.076640683 274.858666553,232.076640683 274.758666553,234.876640683 C274.758666553,236.676640683 268.558666553,284.176640683 261.058666553,340.576640683 L247.358666553,443.076640683 L299.758666553,443.376640683
C328.558666553,443.476640683 352.258666553,443.476640683 352.358666553,443.376640683 C352.458666553,443.176640683 346.358666553,396.476640683 338.758666553,339.576640683 C331.158666553,282.676640683 324.858666553,235.176640683 324.858666553,233.976640683
C324.858666553,232.576640683 327.258666553,230.076640683 332.558666553,225.976640683 C338.158666553,221.676640683 341.658666553,217.976640683 345.458666553,212.376640683 C352.858666553,201.276640683 354.358666553,195.776640683 354.258666553,180.576640683
C354.258666553,169.476640683 353.958666553,167.376640683 351.658666553,161.876640683 C345.458666553,147.176640683 333.058666553,134.976640683 318.758666553,129.376640683 C312.558666553,127.076640683 294.458666553,125.976640683 286.858666553,127.576640683
z"/>
   </g>
</svg>
